<svg width="96" height="96" viewBox="0 0 150 150" fill="none" xmlns="http://www.w3.org/2000/svg">
<rect width="150" height="150" rx="17" fill="white"/>
<path d="M17.9078 26.4317C20.5857 26.6158 24.9617 26.6407 27.6204 26.4372C27.8505 47.0436 27.5151 67.7849 27.65 88.4046C27.7265 90.2866 27.6061 92.2999 28.0246 94.1477C32.9999 116.11 61.7446 121.174 73.9142 102.314C77.488 96.7759 77.8066 91.9262 77.2631 85.3115C77.0297 82.4699 80.2817 77.5925 82.1885 75.4944C84.3359 73.1316 84.694 76.7659 85.2111 78.131C87.1383 83.2445 87.6177 87.75 87.1666 93.1997C85.8112 101.766 83.1672 107.127 77.2648 113.452C66.2791 125.225 47.3182 126.578 33.9377 118.263C31.5317 116.768 29.9352 114.921 27.5929 113.434C27.6394 116.589 27.6551 119.744 27.64 122.899L17.8711 122.845L17.873 65.4531L17.8676 40.6096C17.866 35.9609 17.7886 31.0653 17.9078 26.4317Z" fill="#1AA370"/>
<path d="M123.3 26.5286C126.342 26.5897 129.602 26.5185 132.661 26.5C132.752 34.2631 132.688 42.132 132.691 49.9042L132.697 93.1485L132.69 112.223C132.687 115.237 132.549 119.959 132.773 122.84C129.644 122.79 126.429 122.823 123.293 122.824C123.215 119.735 123.331 116.523 123.266 113.369C121.769 114.394 120.177 116.055 118.909 116.96C116.597 118.411 113.408 120.654 110.824 121.449C105.007 123.239 99.188 123.932 93.158 123.149C85.4522 121.776 84.6009 121.417 78.0069 117.184C80.6647 115.456 82.469 112.108 84.6499 109.945L84.6407 109.939C85.3104 110.158 85.0752 110.45 85.3539 110.582C89.5953 112.591 93.7636 114.2 98.4882 114.066C110.18 113.733 120.184 106.076 122.625 94.4507C123.472 90.4168 123.304 87.3098 123.273 83.283C123.236 80.0827 123.224 76.8823 123.235 73.6819L123.3 26.5286Z" fill="#F77861"/>
<path d="M96.7694 55.6697L97.0306 55.6535C100.2 55.4723 103.041 56.0243 106.131 56.5308C110.018 57.168 113.575 58.8711 116.904 60.9238C117.778 61.4624 118.762 61.8638 119.513 62.5349C119.846 67.1694 119.449 72.9985 119.633 77.8394C119.545 77.5958 119.349 76.7175 119.247 76.5765C116.922 73.3208 114.068 70.4855 110.601 68.4567C97.482 60.7791 80.0637 66.9743 74.7863 81.3145C73.4021 86.0025 73.1192 88.9262 73.47 93.7517C73.7035 96.9653 70.904 101.071 68.9747 103.431C68.6044 103.884 67.756 104.551 67.2694 105.047C65.1838 100.184 64.1593 98.2118 63.7596 92.8237C63.0519 83.2807 65.6393 74.4845 72.1139 67.3005C78.7693 59.9162 86.9173 56.3201 96.7694 55.6697Z" fill="#5BB3E2"/>
<path d="M50.2239 55.6674C53.8505 55.1342 61.1877 56.3475 64.7231 57.6583C67.1797 58.569 70.4936 60.448 72.6154 61.97C70.6795 64.7521 67.8433 65.9544 66.487 69.6655C61.518 65.4792 53.5429 64.3407 47.3257 65.6339C41.6117 67.0967 36.786 69.9168 32.9766 74.4112C32.3396 75.1627 31.7348 75.6283 30.9995 76.2682C31.0539 72.2002 31.2147 66.473 31.0254 62.583C32.9781 61.9201 33.8447 60.9168 35.5949 59.9678C40.6582 57.2223 44.5278 56.2748 50.2239 55.6674Z" fill="#1AA370"/>
</svg>